<svg xmlns="http://www.w3.org/2000/svg" viewBox="0 0 1800 1280" width="1800" height="1280">
<defs>
  <pattern id="grid" width="30" height="30" patternUnits="userSpaceOnUse"><path d="M 30 0 L 0 0 0 30" fill="none" stroke="#112240" stroke-width="0.5"/></pattern>
  <marker id="arrow-cyan" markerWidth="9" markerHeight="7" refX="8" refY="3.5" orient="auto"><polygon points="0 0, 9 3.5, 0 7" fill="#00b4d8"/></marker>
  <marker id="arrow-green" markerWidth="9" markerHeight="7" refX="8" refY="3.5" orient="auto"><polygon points="0 0, 9 3.5, 0 7" fill="#06d6a0"/></marker>
  <marker id="arrow-orange" markerWidth="9" markerHeight="7" refX="8" refY="3.5" orient="auto"><polygon points="0 0, 9 3.5, 0 7" fill="#f77f00"/></marker>
  <marker id="arrow-purple" markerWidth="9" markerHeight="7" refX="8" refY="3.5" orient="auto"><polygon points="0 0, 9 3.5, 0 7" fill="#b388ff"/></marker>
</defs>
<style>text { font-family: 'Courier New', 'Microsoft YaHei', 'PingFang SC', monospace; } .title { fill:#ffffff;font-size:27px;font-weight:700;letter-spacing:.04em } .subtitle { fill:#90e0ef;font-size:14px } .section { fill:#00b4d8;font-size:14px;font-weight:700;letter-spacing:.08em } .node-title { fill:#caf0f8;font-size:15px;font-weight:700 } .node-body { fill:#90e0ef;font-size:11px } .small { fill:#48cae4;font-size:10px } .edge-label { fill:#caf0f8;font-size:10px } .legend { fill:#90e0ef;font-size:10px } </style>
<rect width="1800" height="1280" fill="#0a1628" data-graph-role="background"/>
<rect width="1800" height="1280" fill="url(#grid)" opacity="0.72" data-graph-role="background"/>
<text x="60" y="54" class="title">WEEK-RESEARCH-AGENT · 当前已实现架构</text>
<text x="60" y="80" class="subtitle">手写函数调用 Agent + RAG + 会话记忆 + 工作流 + SSE · 代码模块与主要数据流</text>
<line x1="60" y1="98" x2="1740" y2="98" stroke="#00b4d8" stroke-width="1" opacity=".7"/>
<rect x="45" y="125" width="340" height="410" rx="3" fill="#0d1f3c" fill-opacity=".62" stroke="#00b4d8" stroke-width="1" stroke-dasharray="7,4" data-graph-role="container"/>
<text x="63" y="151" class="section">01 接入与交付层</text>
<text x="63" y="169" class="small">server/ · HTTP API / 浏览器界面 / SSE</text>
<rect x="430" y="125" width="700" height="410" rx="3" fill="#0d1f3c" fill-opacity=".62" stroke="#00b4d8" stroke-width="1" stroke-dasharray="7,4" data-graph-role="container"/>
<text x="448" y="151" class="section">02 单课题 Agent 运行时</text>
<text x="448" y="169" class="small">research_agent/ · 两阶段架构：研究 → 结构化报告</text>
<rect x="1175" y="125" width="580" height="410" rx="3" fill="#0d1f3c" fill-opacity=".62" stroke="#00b4d8" stroke-width="1" stroke-dasharray="7,4" data-graph-role="container"/>
<text x="1193" y="151" class="section">03 外部知识与工具</text>
<text x="1193" y="169" class="small">common/tools.py · 公网搜索 + 私有知识检索</text>
<rect x="45" y="580" width="1040" height="370" rx="3" fill="#0d1f3c" fill-opacity=".62" stroke="#00b4d8" stroke-width="1" stroke-dasharray="7,4" data-graph-role="container"/>
<text x="63" y="606" class="section">04 状态、记忆与 RAG 基础</text>
<text x="63" y="624" class="small">消息 / 工具追踪 / Token 用量 / 持久会话 / 向量检索</text>
<rect x="1130" y="580" width="625" height="370" rx="3" fill="#0d1f3c" fill-opacity=".62" stroke="#00b4d8" stroke-width="1" stroke-dasharray="7,4" data-graph-role="container"/>
<text x="1148" y="606" class="section">05 扩展、质量与学习适配</text>
<text x="1148" y="624" class="small">大课题工作流 / 评估 / LangChain 对照</text>
<g id="browser" data-graph-role="node">
<rect x="75" y="175" width="130" height="110" rx="3" fill="#10345a" stroke="#00b4d8" stroke-width="1.4"/>
<text x="89" y="198" class="node-title">浏览器界面</text>
<text x="89" y="218" class="node-body">server/static/</text>
<text x="89" y="233" class="node-body">index.html</text>
<text x="89" y="248" class="node-body">session_id 本地存储</text>
</g>
<g id="api" data-graph-role="node">
<rect x="235" y="155" width="125" height="150" rx="3" fill="#10345a" stroke="#00b4d8" stroke-width="1.4"/>
<text x="249" y="178" class="node-title">FastAPI 服务</text>
<text x="249" y="198" class="node-body">server/main.py</text>
<text x="249" y="213" class="node-body">POST /api/research</text>
<text x="249" y="228" class="node-body">GET /stream（SSE）</text>
<text x="249" y="243" class="node-body">GET /health + /docs</text>
</g>
<g id="schemas" data-graph-role="node">
<rect x="75" y="350" width="285" height="115" rx="3" fill="#0d1f3c" stroke="#00b4d8" stroke-width="1.4"/>
<text x="89" y="373" class="node-title">HTTP 契约</text>
<text x="89" y="393" class="node-body">server/schemas.py</text>
<text x="89" y="408" class="node-body">ResearchRequest / Response</text>
<text x="89" y="423" class="node-body">Pydantic 校验 + 元信息</text>
</g>
<g id="agent" data-graph-role="node">
<rect x="460" y="180" width="170" height="140" rx="3" fill="#123f49" stroke="#06d6a0" stroke-width="1.4"/>
<text x="474" y="203" class="node-title">总编排器</text>
<text x="474" y="223" class="node-body">agent.py</text>
<text x="474" y="238" class="node-body">run_research_agent()</text>
<text x="474" y="253" class="node-body">共享 client + logger</text>
<text x="474" y="268" class="node-body">部分失败仍尝试产出报告</text>
</g>
<g id="researcher" data-graph-role="node">
<rect x="675" y="150" width="190" height="175" rx="3" fill="#123f49" stroke="#06d6a0" stroke-width="1.4"/>
<text x="689" y="173" class="node-title">研究者循环</text>
<text x="689" y="193" class="node-body">researcher.py</text>
<text x="689" y="208" class="node-body">系统提示词 + 工具</text>
<text x="689" y="223" class="node-body">while tool_calls 循环</text>
<text x="689" y="238" class="node-body">max_steps + 执行追踪</text>
<text x="689" y="253" class="node-body">提取 findings</text>
</g>
<g id="reporter" data-graph-role="node">
<rect x="900" y="180" width="195" height="140" rx="3" fill="#123f49" stroke="#06d6a0" stroke-width="1.4"/>
<text x="914" y="203" class="node-title">报告生成器</text>
<text x="914" y="223" class="node-body">reporter.py</text>
<text x="914" y="238" class="node-body">findings → JSON 报告</text>
<text x="914" y="253" class="node-body">不提供工具</text>
<text x="914" y="268" class="node-body">响应 Schema 校验</text>
</g>
<g id="llm" data-graph-role="node">
<rect x="675" y="365" width="190" height="110" rx="3" fill="#241849" stroke="#b388ff" stroke-width="1.4"/>
<text x="689" y="388" class="node-title">GLM 适配器</text>
<text x="689" y="408" class="node-body">zhipuai client</text>
<text x="689" y="423" class="node-body">函数调用</text>
<text x="689" y="438" class="node-body">用量 / 温度</text>
</g>
<g id="prompts" data-graph-role="node">
<rect x="900" y="365" width="195" height="110" rx="3" fill="#241849" stroke="#b388ff" stroke-width="1.4"/>
<text x="914" y="388" class="node-title">提示词契约</text>
<text x="914" y="408" class="node-body">prompts.py</text>
<text x="914" y="423" class="node-body">researcher 系统提示词</text>
<text x="914" y="438" class="node-body">reporter JSON 模板</text>
</g>
<g id="web" data-graph-role="node">
<rect x="1205" y="165" width="160" height="135" rx="3" fill="#3b260d" stroke="#f77f00" stroke-width="1.4"/>
<text x="1219" y="188" class="node-title">联网工具</text>
<text x="1219" y="208" class="node-body">search_web()</text>
<text x="1219" y="223" class="node-body">DuckDuckGo + 重试</text>
<text x="1219" y="238" class="node-body">fetch_url()</text>
<text x="1219" y="253" class="node-body">readability 正文提取</text>
</g>
<g id="ragtool" data-graph-role="node">
<rect x="1400" y="165" width="160" height="135" rx="3" fill="#123f49" stroke="#06d6a0" stroke-width="1.4"/>
<text x="1414" y="188" class="node-title">私有 RAG 工具</text>
<text x="1414" y="208" class="node-body">query_docs()</text>
<text x="1414" y="223" class="node-body">语义检索 top_k</text>
<text x="1414" y="238" class="node-body">公司手册</text>
<text x="1414" y="253" class="node-body">技术 Wiki</text>
</g>
<g id="toolguard" data-graph-role="node">
<rect x="1205" y="355" width="355" height="110" rx="3" fill="#0d1f3c" stroke="#00b4d8" stroke-width="1.4"/>
<text x="1219" y="378" class="node-title">工具可靠性与 Schema</text>
<text x="1219" y="398" class="node-body">common/tools.py：超时 + 重试 + 统一 {success, result}</text>
<text x="1219" y="413" class="node-body">common/schemas.py：工具 Schema / 工具注册表 / 响应格式</text>
</g>
<g id="internet" data-graph-role="node">
<rect x="1590" y="355" width="130" height="110" rx="3" fill="#0d1f3c" stroke="#00b4d8" stroke-width="1.4"/>
<text x="1604" y="378" class="node-title">互联网</text>
<text x="1604" y="398" class="node-body">网页</text>
<text x="1604" y="413" class="node-body">搜索索引</text>
<text x="1604" y="428" class="node-body">外部来源</text>
</g>
<g id="state" data-graph-role="node">
<rect x="75" y="640" width="210" height="150" rx="3" fill="#1a273d" stroke="#00b4d8" stroke-width="1.4"/>
<text x="89" y="663" class="node-title">Agent 状态</text>
<text x="89" y="683" class="node-body">common/state.py</text>
<text x="89" y="698" class="node-body">messages / steps</text>
<text x="89" y="713" class="node-body">tool_history / errors</text>
<text x="89" y="728" class="node-body">ResearchState：</text>
<text x="89" y="743" class="node-body">topic、findings、report</text>
<text x="89" y="758" class="node-body">Token 统计</text>
</g>
<g id="memory" data-graph-role="node">
<rect x="330" y="640" width="205" height="150" rx="3" fill="#1a273d" stroke="#00b4d8" stroke-width="1.4"/>
<text x="344" y="663" class="node-title">会话记忆</text>
<text x="344" y="683" class="node-body">server/storage.py</text>
<text x="344" y="698" class="node-body">SQLite sessions.db</text>
<text x="344" y="713" class="node-body">session_id → 历史记录</text>
<text x="344" y="728" class="node-body">执行前读取 / 执行后写回</text>
<text x="344" y="743" class="node-body">线程锁</text>
</g>
<g id="logger" data-graph-role="node">
<rect x="580" y="640" width="190" height="150" rx="3" fill="#1a273d" stroke="#00b4d8" stroke-width="1.4"/>
<text x="594" y="663" class="node-title">可观测性</text>
<text x="594" y="683" class="node-body">common/logger.py</text>
<text x="594" y="698" class="node-body">运行日志 + JSONL</text>
<text x="594" y="713" class="node-body">on_progress 回调</text>
<text x="594" y="728" class="node-body">SSE 事件流</text>
<text x="594" y="743" class="node-body">工具耗时 / Token</text>
</g>
<g id="kbsource" data-graph-role="node">
<rect x="815" y="640" width="220" height="150" rx="3" fill="#1a273d" stroke="#00b4d8" stroke-width="1.4"/>
<text x="829" y="663" class="node-title">知识来源</text>
<text x="829" y="683" class="node-body">knowledge/*.txt</text>
<text x="829" y="698" class="node-body">公司手册</text>
<text x="829" y="713" class="node-body">technical wiki</text>
<text x="829" y="728" class="node-body">RAG 索引输入</text>
</g>
<g id="ragpipe" data-graph-role="node">
<rect x="75" y="830" width="310" height="85" rx="3" fill="#1c2e43" stroke="#00b4d8" stroke-width="1.4"/>
<text x="89" y="853" class="node-title">RAG 流水线</text>
<text x="89" y="873" class="node-body">rag/loader.py → 切块(400, overlap=50) → rag/embedder.py (bge-small-zh)</text>
</g>
<g id="vector" data-graph-role="node">
<rect x="430" y="820" width="250" height="105" rx="3" fill="#1a273d" stroke="#00b4d8" stroke-width="1.4"/>
<text x="444" y="843" class="node-title">向量库</text>
<text x="444" y="863" class="node-body">rag/store.py</text>
<text x="444" y="878" class="node-body">Chroma PersistentClient</text>
<text x="444" y="893" class="node-body">向量 + 来源元数据</text>
</g>
<g id="ragchain" data-graph-role="node">
<rect x="725" y="820" width="310" height="105" rx="3" fill="#1c2e43" stroke="#00b4d8" stroke-width="1.4"/>
<text x="739" y="843" class="node-title">独立 RAG 问答</text>
<text x="739" y="863" class="node-body">rag/chain.py</text>
<text x="739" y="878" class="node-body">检索 → 上下文 → GLM</text>
<text x="739" y="893" class="node-body">有依据的回答 + 来源</text>
</g>
<g id="workflow" data-graph-role="node">
<rect x="1160" y="635" width="260" height="170" rx="3" fill="#123f49" stroke="#06d6a0" stroke-width="1.4"/>
<text x="1174" y="658" class="node-title">大课题工作流</text>
<text x="1174" y="678" class="node-body">workflow/agent.py</text>
<text x="1174" y="693" class="node-body">Planner → Executor</text>
<text x="1174" y="708" class="node-body">→ Synthesizer</text>
<text x="1174" y="723" class="node-body">固定的 Plan-and-Solve</text>
<text x="1174" y="738" class="node-body">Executor 复用 Agent × N</text>
</g>
<g id="eval" data-graph-role="node">
<rect x="1470" y="635" width="250" height="170" rx="3" fill="#3b260d" stroke="#f77f00" stroke-width="1.4"/>
<text x="1484" y="658" class="node-title">评估</text>
<text x="1484" y="678" class="node-body">evaluation/runner.py</text>
<text x="1484" y="693" class="node-body">测试用例 + 指标</text>
<text x="1484" y="708" class="node-body">judge.py：LLM 评审</text>
<text x="1484" y="723" class="node-body">report.py + JSON 产物</text>
<text x="1484" y="738" class="node-body">离线批处理 / 串行</text>
</g>
<g id="langchain" data-graph-role="node">
<rect x="1160" y="845" width="260" height="75" rx="3" fill="#241849" stroke="#b388ff" stroke-width="1.4"/>
<text x="1174" y="868" class="node-title">LangChain 对照</text>
<text x="1174" y="888" class="node-body">langchain_version/：@tool + bind_tools + AgentExecutor 对照</text>
</g>
<g id="config" data-graph-role="node">
<rect x="1470" y="845" width="250" height="75" rx="3" fill="#0d1f3c" stroke="#00b4d8" stroke-width="1.4"/>
<text x="1484" y="868" class="node-title">共享配置</text>
<text x="1484" y="888" class="node-body">config.py + .env · API key / 模型 / 温度</text>
</g>
<path d="M 205 230 H 235" fill="none" stroke="#00b4d8" stroke-width="1.7" marker-end="url(#arrow-cyan)" data-graph-role="edge"/>
<text x="190" y="218" class="edge-label">HTTP / EventSource</text>
<path d="M 360 230 H 430 V 250 H 460" fill="none" stroke="#00b4d8" stroke-width="1.7" marker-end="url(#arrow-cyan)" data-graph-role="edge"/>
<text x="375" y="218" class="edge-label">课题 + 会话</text>
<path d="M 630 250 H 675" fill="none" stroke="#00b4d8" stroke-width="1.7" marker-end="url(#arrow-cyan)" data-graph-role="edge"/>
<text x="638" y="240" class="edge-label">状态</text>
<path d="M 770 325 V 365" fill="none" stroke="#00b4d8" stroke-width="1.7" marker-end="url(#arrow-cyan)" data-graph-role="edge"/>
<text x="780" y="353" class="edge-label">LLM 调用</text>
<path d="M 865 250 H 900" fill="none" stroke="#00b4d8" stroke-width="1.7" marker-end="url(#arrow-cyan)" data-graph-role="edge"/>
<text x="862" y="238" class="edge-label">研究素材</text>
<path d="M 998 320 V 365" fill="none" stroke="#f77f00" stroke-width="1.7" stroke-dasharray="3,2" marker-end="url(#arrow-orange)" data-graph-role="edge"/>
<text x="1008" y="351" class="edge-label">模板</text>
<path d="M 865 420 H 900 V 325" fill="none" stroke="#00b4d8" stroke-width="1.7" marker-end="url(#arrow-cyan)" data-graph-role="edge"/>
<text x="870" y="353" class="edge-label">LLM 输出</text>
<path d="M 675 225 H 650 V 115 H 1275 V 165" fill="none" stroke="#f77f00" stroke-width="1.7" stroke-dasharray="3,2" marker-end="url(#arrow-orange)" data-graph-role="edge"/>
<text x="1000" y="135" class="edge-label">工具调用</text>
<path d="M 1365 230 H 1400" fill="none" stroke="#00b4d8" stroke-width="1.7" marker-end="url(#arrow-cyan)" data-graph-role="edge"/>
<text x="1360" y="218" class="edge-label">私有检索</text>
<path d="M 1285 300 V 355" fill="none" stroke="#f77f00" stroke-width="1.7" stroke-dasharray="3,2" marker-end="url(#arrow-orange)" data-graph-role="edge"/>
<text x="1294" y="340" class="edge-label">重试 / 超时</text>
<path d="M 1560 410 H 1590" fill="none" stroke="#00b4d8" stroke-width="1.7" marker-end="url(#arrow-cyan)" data-graph-role="edge"/>
<text x="1560" y="400" class="edge-label">HTTP</text>
<path d="M 1480 465 V 490 H 650 V 325 H 675" fill="none" stroke="#b388ff" stroke-width="1.7" marker-end="url(#arrow-purple)" data-graph-role="edge"/>
<text x="1080" y="480" class="edge-label">观察结果 → 下一次 LLM 决策</text>
<path d="M 285 710 H 330" fill="none" stroke="#06d6a0" stroke-width="1.7" marker-end="url(#arrow-green)" data-graph-role="edge"/>
<text x="290" y="700" class="edge-label">历史</text>
<path d="M 630 320 V 560 H 675 V 640" fill="none" stroke="#f77f00" stroke-width="1.7" stroke-dasharray="3,2" marker-end="url(#arrow-orange)" data-graph-role="edge"/>
<text x="680" y="550" class="edge-label">进度 / 追踪</text>
<path d="M 385 872 H 430" fill="none" stroke="#00b4d8" stroke-width="1.7" marker-end="url(#arrow-cyan)" data-graph-role="edge"/>
<text x="387" y="862" class="edge-label">文本块 + 向量</text>
<path d="M 680 872 H 725" fill="none" stroke="#06d6a0" stroke-width="1.7" marker-end="url(#arrow-green)" data-graph-role="edge"/>
<text x="682" y="862" class="edge-label">top_k 上下文</text>
<path d="M 1420 720 H 1470" fill="none" stroke="#f77f00" stroke-width="1.7" stroke-dasharray="3,2" marker-end="url(#arrow-orange)" data-graph-role="edge"/>
<text x="1425" y="710" class="edge-label">基准测试</text>
<path d="M 1290 805 V 845" fill="none" stroke="#f77f00" stroke-width="1.7" stroke-dasharray="3,2" marker-end="url(#arrow-orange)" data-graph-role="edge"/>
<text x="1300" y="835" class="edge-label">框架对照</text>
<g data-graph-role="legend"><rect x="60" y="1110" width="460" height="74" fill="#0d1f3c" stroke="#00b4d8" stroke-width="1"/>
<text x="74" y="1129" class="section">连线图例</text>
<line x1="74" y1="1149" x2="108" y2="1149" stroke="#00b4d8" stroke-width="2" marker-end="url(#arrow-cyan)"/><text x="117" y="1153" class="legend">主数据 / 请求</text>
<line x1="252" y1="1149" x2="286" y2="1149" stroke="#06d6a0" stroke-width="2" marker-end="url(#arrow-green)"/><text x="295" y="1153" class="legend">记忆读取 / 写入</text>
<line x1="74" y1="1171" x2="108" y2="1171" stroke="#f77f00" stroke-width="1.5" stroke-dasharray="3,2" marker-end="url(#arrow-orange)"/><text x="117" y="1175" class="legend">控制 / 触发</text>
<line x1="252" y1="1171" x2="286" y2="1171" stroke="#b388ff" stroke-width="2" marker-end="url(#arrow-purple)"/><text x="295" y="1175" class="legend">LLM-工具反馈循环</text></g>
<rect x="1380" y="1194" width="360" height="56" fill="#0d1f3c" stroke="#00b4d8" stroke-width="1" data-graph-role="decoration"/>
<line x1="1380" y1="1214" x2="1740" y2="1214" stroke="#00b4d8" stroke-width=".7"/>
<text x="1560" y="1210" text-anchor="middle" class="small">WEEK-RESEARCH-AGENT / 当前</text>
<text x="1560" y="1237" text-anchor="middle" class="node-title">已实现系统全景图</text>
</svg>